<?xml version="1.0"?>
<svg xmlns="http://www.w3.org/2000/svg" xmlns:xlink="http://www.w3.org/1999/xlink" version="1.1" viewBox="0 0 252 252" width="528px" height="528px"><g fill="none" fill-rule="nonzero" stroke="none" stroke-width="1" stroke-linecap="butt" stroke-linejoin="miter" stroke-miterlimit="10" stroke-dasharray="" stroke-dashoffset="0" font-family="none" font-weight="none" font-size="none" text-anchor="none" style="mix-blend-mode: normal"><path d="M0,252v-252h252v252z" fill="none"/><g fill="#000000"><g id="surface1"><path d="M111.2959,78.75c0,-1.5791 -1.0459,-2.09179 -2.0918,-2.09179c-6.29589,0 -15.2373,16.26269 -15.2373,26.25c9.9873,-5.78321 17.3291,-17.86231 17.3291,-24.15821zM77.7041,164.8418c0,4.7373 2.0918,7.875 6.82911,7.875c13.125,0 21,-20.4668 23.625,-38.30859c-13.65821,6.29589 -30.45411,17.84179 -30.45411,30.43359zM163.7959,79.7959c0,-1.5791 -0.51269,-3.13769 -2.0918,-3.13769c-4.2041,0 -11.54589,9.43359 -11.54589,21.51269c8.92089,-7.875 13.63769,-14.1709 13.63769,-18.375zM126,21c-57.75,0 -105,47.25 -105,105c0,57.75 47.25,105 105,105c57.75,0 105,-47.25 105,-105c0,-57.75 -47.25,-105 -105,-105zM126,220.5c-51.96679,0 -94.5,-42 -94.5,-94.5c0,-51.96679 42.53321,-94.5 94.5,-94.5c51.9668,0 94.5,42.53321 94.5,94.5c0,51.9668 -42.5332,94.5 -94.5,94.5zM164.3291,51.4541c-7.3623,-2.1123 -13.125,-3.67089 -20.4873,-3.67089c-16.2627,0 -16.7959,8.92089 -24.1377,8.92089c-4.2041,0 -6.8291,-3.1582 -6.8291,-6.8291c0,-6.2959 7.3418,-11.5459 19.4209,-11.5459c11.0332,0 19.4209,2.625 21.5332,3.6709l0.5127,-0.5332c-3.1377,-1.0459 -13.6377,-4.7168 -28.3418,-4.7168c-32.0332,0 -64.5791,16.28321 -75.0791,50.9209c-2.0918,7.36231 -3.6709,13.125 -3.6709,20.48731c0,16.26269 8.9209,16.79589 8.9209,24.13769c0,3.6709 -3.13769,6.8291 -6.8291,6.8291c-6.2959,0 -11.5459,-7.34179 -11.5459,-19.4209c0,-11.0332 2.625,-19.42089 3.1582,-21.5332l-0.5332,-0.51269c0,3.67089 -3.6709,13.63769 -3.6709,28.34179c0,32.03321 16.28321,64.5791 50.9209,75.0791c7.36231,2.0918 13.125,3.6709 20.48731,3.6709c16.26269,0 16.79589,-9.4541 24.13769,-9.4541c3.6709,0 6.8291,3.1582 6.8291,6.8291c0,6.2959 -7.34179,11.03321 -19.4209,11.03321c-11.0332,0 -19.9541,-2.625 -21.5332,-3.15821l-0.51269,1.0459c3.13769,1.5791 13.63769,4.2041 28.34179,4.2041c32.03321,0 64.5791,-16.2832 75.0791,-50.9209c2.0918,-6.8291 3.6709,-13.125 3.6709,-19.9541c0,-16.2832 -8.9209,-16.7959 -8.9209,-24.1582c0,-4.18359 2.625,-6.80859 6.82911,-6.80859c6.29589,0 11.54589,7.34179 11.54589,19.42089c0,11.0127 -2.625,19.4209 -3.1582,21.5127l1.0459,0.5332c1.06641,-3.1582 4.2041,-13.6582 4.2041,-28.34179c-1.0459,-32.03321 -17.3291,-64.57911 -51.9668,-75.07911zM156.9668,181.65821c-20.4668,0 -30.9668,-17.32911 -30.9668,-32.56641c0,-21.5127 14.7041,-30.9668 21,-34.125c-1.0459,-1.0459 -2.09179,-2.0918 -3.1582,-3.6709c-7.3418,5.25 -13.6377,9.4541 -27.2959,17.3291c-0.51269,9.4541 -1.5791,19.9541 -3.6709,26.78321c-5.25,15.21679 -15.21679,26.25 -28.875,26.25c-11.5459,0 -17.3291,-8.40821 -17.3291,-17.32911c0,-6.29589 3.6709,-14.7041 10.5,-21c8.4082,-7.875 17.86231,-12.6123 30.98731,-19.42089c0.51269,-1.57911 0.51269,-3.69141 1.04589,-5.78321c-3.1582,3.15821 -7.875,4.2041 -12.0791,4.2041c-6.2959,0 -11.0332,-5.25 -12.59179,-11.0332c-8.40821,-0.51269 -14.70411,-6.2959 -14.70411,-15.75c0,-6.8291 2.625,-12.5918 7.3418,-12.5918c1.5791,0 2.11231,1.57911 2.11231,2.625c0,1.0459 -1.57911,5.25 -1.57911,8.9209c0,3.6709 1.57911,8.9209 6.2959,8.9209c0,-15.2168 11.03321,-35.1709 24.6709,-35.1709c8.9209,0 9.98731,6.2959 9.98731,9.4541c0,14.1709 -14.19141,29.3877 -25.20411,33.07911c0.5127,1.04589 1.57911,4.71679 5.25,4.71679c4.20411,0 9.9668,-4.2041 12.5918,-7.34179c1.0459,-6.31641 5.7832,-15.23731 11.5459,-15.23731c2.1123,0 3.69141,1.5791 3.69141,3.6709c0,4.2041 -4.73731,9.9873 -8.40821,13.6582c-0.5332,3.15821 -1.0459,6.2959 -1.0459,8.9209c10.5,-6.2959 15.75,-9.4541 23.625,-15.2168c-0.5332,-2.1123 -0.5332,-4.7373 -0.5332,-6.8291c0,-13.6582 9.4541,-29.4082 21.5332,-29.4082c6.82911,0 10.5,4.7373 10.5,9.9873c0,9.9668 -8.4082,18.8877 -20.4873,28.3418c1.06641,2.11231 2.1123,4.2041 4.7373,5.7832c0.5127,-0.5332 4.20411,-1.04589 7.3418,-1.04589c3.6709,0 8.4082,1.04589 8.4082,4.71679c0,4.2041 -5.7832,5.25 -9.9873,5.25c-2.0918,0.53321 -6.2959,-0.5332 -6.2959,-0.5332c-6.2959,1.5791 -18.88769,9.4541 -18.88769,28.3623c0,12.5918 7.875,24.6709 20.46679,24.6709c9.4541,0 17.3291,-6.8291 17.3291,-17.84179c0,-6.82911 -3.1582,-14.70411 -9.9873,-14.70411c-3.6709,0 -6.80859,2.625 -6.80859,6.2959c-0.53321,5.78321 4.18359,6.2959 4.18359,10.5c0,2.625 -2.0918,3.6709 -4.18359,3.6709c-5.78321,0 -10.5,-5.76269 -10.5,-13.125c0,-8.9209 7.875,-16.26269 17.84179,-16.26269c13.125,0 19.9541,11.01269 19.9541,23.625c0,12.59179 -11.54589,26.25 -28.3623,26.25z"/></g></g></g></svg>
