<?xml version="1.0" encoding="iso-8859-1"?>
<!-- Generator: Adobe Illustrator 22.0.1, SVG Export Plug-In . SVG Version: 6.00 Build 0)  -->
<svg xmlns="http://www.w3.org/2000/svg" xmlns:xlink="http://www.w3.org/1999/xlink" version="1.1" id="Layer_1" x="0px" y="0px" viewBox="0 0 64 64" style="enable-background:new 0 0 64 64;" xml:space="preserve" width="512px" height="512px">
<linearGradient id="SVGID_1__69448" gradientUnits="userSpaceOnUse" x1="32" y1="17" x2="32" y2="47" spreadMethod="reflect">
	<stop offset="0" style="stop-color:#6DC7FF"/>
	<stop offset="1" style="stop-color:#E6ABFF"/>
</linearGradient>
<path style="fill:url(#SVGID_1__69448);" d="M42.649,33.61c-2.716,0-4.815,1.953-4.815,4.309c0,1.953,1.214,3.523,2.819,3.523  c0.556,0,1.111-0.322,1.111-1.027c0-1.007-1.193-1.168-1.111-2.739c0-1.027,0.865-1.732,1.831-1.732  c1.914,0,2.716,1.973,2.716,3.845c-0.082,2.9-2.161,4.772-4.712,4.772c-3.375,0-5.536-3.121-5.536-6.503  c0-4.993,3.375-6.967,5.124-7.429c0,0,1.297,0.348,2.256,0.348c1.194,0,2.667-0.413,2.667-1.5c0-0.947-1.388-1.458-2.354-1.458  c-0.864,0-2.404,0.416-2.487,0.577c-0.638-0.322-1.029-0.866-1.276-1.489c3.272-2.436,5.597-4.772,5.597-7.429  c0-1.409-0.946-2.678-2.799-2.678c-3.272,0-5.762,4.087-5.762,7.751c0,0.624,0,1.268,0.165,1.812  c-2.078,1.489-3.519,2.335-6.317,3.987c0-0.705,0.082-1.57,0.226-2.356c0.967-1.006,1.998-1.999,1.998-3.168  c0-0.563-0.309-1.027-0.946-1.027c-1.605,0-2.575,1.859-2.884,3.49c-0.72,0.866-2.161,1.973-3.355,1.974  c-0.968,0-1.296-0.866-1.379-1.188c3.046-1.007,6.811-5.074,6.811-8.758c0-0.786-0.329-2.517-2.716-2.517  c-3.601,0-6.647,5.255-6.647,9.322c-1.276,0-1.691-1.255-1.691-2.282c0-1.007,0.412-2.034,0.412-2.335  c0-0.322-0.165-0.705-0.638-0.705c-1.214,0-1.934,1.57-1.934,3.362c-0.024,2.388,1.691,3.992,3.935,4.153  c0.309,1.489,1.687,2.9,3.355,2.9c1.05,0,2.325-0.322,3.21-1.107c-0.082,0.564-0.165,1.027-0.246,1.49  c-3.519,1.812-6.071,3.06-8.396,5.094C17.029,38.544,16,40.738,16,42.45c0,2.356,1.522,4.55,4.63,4.55  c3.684,0,6.482-2.9,7.841-6.885c0.659-1.893,0.885-4.631,1.05-7.128c3.684-2.034,5.432-3.222,7.367-4.55  c0.226,0.402,0.474,0.705,0.803,0.947c-1.688,0.866-5.68,3.281-5.68,8.999c0,4.067,2.799,8.617,8.313,8.617  C44.893,47,48,43.316,48,39.792C47.999,36.59,46.168,33.61,42.649,33.61z M27.359,19.195c0.329,0,0.556,0.161,0.556,0.544  c0,1.732-1.996,4.933-4.63,6.342C23.284,23.503,25.671,19.194,27.359,19.195z M20.629,44.564c-1.194,0-1.831-0.786-1.831-2.033  c0-3.362,4.569-6.423,8.17-8.134C26.309,39.088,24.149,44.564,20.629,44.564z M41.517,19.195c0.494,0,0.576,0.483,0.576,0.866l0,0  c0,1.087-1.296,2.819-3.684,4.853C38.41,21.711,40.324,19.194,41.517,19.195z"/>
<linearGradient id="SVGID_2__69448" gradientUnits="userSpaceOnUse" x1="31.9915" y1="6" x2="31.9915" y2="57.9907" spreadMethod="reflect">
	<stop offset="0" style="stop-color:#1A6DFF"/>
	<stop offset="1" style="stop-color:#C822FF"/>
</linearGradient>
<path style="fill:url(#SVGID_2__69448);" d="M58,31.995c0-12.045-8.237-22.2-19.375-25.137c-0.042-0.011-0.082-0.024-0.124-0.035  c-0.298-0.077-0.601-0.143-0.903-0.21c-0.12-0.026-0.237-0.058-0.358-0.083c-0.229-0.047-0.461-0.083-0.692-0.124  c-0.197-0.035-0.392-0.075-0.591-0.106c-0.169-0.026-0.341-0.043-0.51-0.065c-0.263-0.035-0.525-0.074-0.791-0.101  c-0.157-0.016-0.317-0.023-0.475-0.036c-0.281-0.023-0.561-0.05-0.844-0.064c-0.302-0.015-0.607-0.018-0.911-0.023  C32.284,6.008,32.144,6,32.001,6h-0.001c0,0,0,0,0,0c-0.113,0-0.224,0.007-0.336,0.008C17.451,6.189,5.983,17.753,5.983,32.001  c0,11.869,7.96,21.86,18.833,24.972c2.284,0.658,4.692,1.017,7.184,1.017c2.514,0,4.942-0.366,7.243-1.034  C50.083,53.825,58,43.849,58,32.001c0-0.001,0-0.002,0-0.003S58,31.996,58,31.995z M51.808,28C50.758,28,50,28.758,50,29.885  c0,2.04,2.809,2.583,2.808,7.032c0,1.826-0.35,4.839-0.954,6.723c-0.437,1.474-1.023,2.808-1.711,4.035  C45.739,52.763,39.241,55.991,32,55.991c-2.897,0-5.676-0.516-8.25-1.461c1.503,0.31,3.603,0.574,6.421,0.574  c3.326,0,5.828-1.548,5.828-3.219C36,50.836,35.164,50,34.095,50c-2.041,0-2.58,2.794-6.975,2.794c-1.886,0-5.196-0.542-7.16-1.144  c-1.361-0.418-2.595-0.962-3.734-1.593C11.19,45.655,8,39.193,8,31.995c0-3.083,0.591-6.029,1.655-8.739  c-0.424,1.765-0.772,4.062-0.772,6.917c0,3.323,1.577,5.826,3.308,5.826C13.183,36,14,35.241,14,34.174  c0-2.04-2.805-2.628-2.805-7.018c0-1.885-0.066-3.556,0.536-5.52c0.83-2.722,2.172-5.101,3.855-7.123C19.882,10.479,25.655,8,32,8  c2.919,0,5.717,0.525,8.307,1.484c-1.477-0.308-3.604-0.586-6.486-0.586c-3.247,0-5.822,1.566-5.822,3.295  C28,13.183,28.758,14,29.886,14c2.041,0,2.592-2.792,6.967-2.792c1.906,0,5.197,0.501,7.161,1.104  c1.325,0.401,2.527,0.916,3.635,1.514C52.757,18.229,56,24.739,56,31.995c0,2.611-0.425,5.124-1.2,7.479  c0.187-1.44,0.319-3.267,0.319-5.586C55.12,30.564,53.558,28,51.808,28z"/>
</svg>
